0
SECTION
2
HEADER
9
$ACADVER
1
AC1024
9
$DWGCODEPAGE
3
ANSI_1252
9
$LASTSAVEDBY
1
Carvajal
9
$HANDSEED
5
5D6
9
$ANGBASE
50
0.0
9
$ANGDIR
70
0
9
$ATTMODE
70
1
9
$AUNITS
70
0
9
$AUPREC
70
0
9
$CECOLOR
62
256
9
$CELTSCALE
40
1.0
9
$CELTYPE
6
ByLayer
9
$CELWEIGHT
370
-1
9
$CLAYER
8
0
9
$CMLJUST
70
0
9
$CMLSCALE
40
15.0
9
$CMLSTYLE
2
Standard
9
$DIMSTYLE
2
ISO-25
9
$TEXTSIZE
40
7.5
9
$TEXTSTYLE
7
MyTextStyle
9
$LUNITS
70
2
9
$LUPREC
70
4
9
$EXTNAMES
290
1
9
$INSBASE
10
0.0
20
0.0
30
0.0
9
$INSUNITS
70
4
9
$LTSCALE
40
1.0
9
$LWDISPLAY
290
1
9
$PDMODE
70
66
9
$PDSIZE
40
0.0
9
$PLINEGEN
70
0
9
$TDCREATE
40
2456329.21530133
9
$TDUCREATE
40
2456329.131968
9
$TDUPDATE
40
2456854.84687378
9
$TDUUPDATE
40
2456854.76354045
9
$TDINDWG
40
0.0484717476851852
0
ENDSEC
0
SECTION
2
CLASSES
0
CLASS
1
RASTERVARIABLES
2
AcDbRasterVariables
3
ISM
90
0
91
1
280
0
281
0
0
CLASS
1
IMAGEDEF
2
AcDbRasterImageDef
3
ISM
90
0
91
1
280
0
281
0
0
CLASS
1
IMAGEDEF_REACTOR
2
AcDbRasterImageDefReactor
3
ISM
90
1
91
1
280
0
281
0
0
CLASS
1
IMAGE
2
AcDbRasterImage
3
ISM
90
127
91
1
280
0
281
1
0
ENDSEC
0
SECTION
2
TABLES
0
TABLE
2
APPID
5
9
330
0
100
AcDbSymbolTable
70
17
0
APPID
5
12
330
9
100
AcDbSymbolTableRecord
100
AcDbRegAppTableRecord
2
ACAD
70
0
0
APPID
5
9E
330
9
100
AcDbSymbolTableRecord
100
AcDbRegAppTableRecord
2
ACAD_PSEXT
70
0
0
APPID
5
133
330
9
100
AcDbSymbolTableRecord
100
AcDbRegAppTableRecord
2
AcadAnnoPO
70
0
0
APPID
5
134
330
9
100
AcDbSymbolTableRecord
100
AcDbRegAppTableRecord
2
AcadAnnotative
70
0
0
APPID
5
135
330
9
100
AcDbSymbolTableRecord
100
AcDbRegAppTableRecord
2
ACAD_DSTYLE_DIMJAG
70
0
0
APPID
5
136
330
9
100
AcDbSymbolTableRecord
100
AcDbRegAppTableRecord
2
ACAD_DSTYLE_DIMTALN
70
0
0
APPID
5
165
330
9
100
AcDbSymbolTableRecord
100
AcDbRegAppTableRecord
2
ACAD_MLEADERVER
70
0
0
APPID
5
217
330
9
100
AcDbSymbolTableRecord
100
AcDbRegAppTableRecord
2
ACAD_NAV_VCDISPLAY
70
0
0
APPID
5
23D
330
9
100
AcDbSymbolTableRecord
100
AcDbRegAppTableRecord
2
GradientColor1ACI
70
0
0
APPID
5
23E
330
9
100
AcDbSymbolTableRecord
100
AcDbRegAppTableRecord
2
GradientColor2ACI
70
0
0
APPID
5
25B
330
9
100
AcDbSymbolTableRecord
100
AcDbRegAppTableRecord
2
ACAUTHENVIRON
70
0
0
APPID
5
260
330
9
100
AcDbSymbolTableRecord
100
AcDbRegAppTableRecord
2
AcDbDynamicBlockTrueName
70
0
0
APPID
5
261
330
9
100
AcDbSymbolTableRecord
100
AcDbRegAppTableRecord
2
AcDbDynamicBlockGUID
70
0
0
APPID
5
271
330
9
100
AcDbSymbolTableRecord
100
AcDbRegAppTableRecord
2
ACAD_EXEMPT_FROM_CAD_STANDARDS
70
0
0
APPID
5
29E
330
9
100
AcDbSymbolTableRecord
100
AcDbRegAppTableRecord
2
AcAecLayerStandard
70
0
0
APPID
5
29F
330
9
100
AcDbSymbolTableRecord
100
AcDbRegAppTableRecord
2
AcCmTransparency
70
0
0
APPID
5
42D
330
9
100
AcDbSymbolTableRecord
100
AcDbRegAppTableRecord
2
NETDXF
70
0
0
ENDTAB
0
TABLE
2
VPORT
5
8
330
0
100
AcDbSymbolTable
70
0
0
ENDTAB
0
TABLE
2
LTYPE
5
5
330
0
100
AcDbSymbolTable
70
5
0
LTYPE
5
14
330
5
100
AcDbSymbolTableRecord
100
AcDbLinetypeTableRecord
70
0
2
ByBlock
3

72
65
73
0
40
0.0
0
LTYPE
5
15
330
5
100
AcDbSymbolTableRecord
100
AcDbLinetypeTableRecord
70
0
2
ByLayer
3

72
65
73
0
40
0.0
0
LTYPE
5
16
330
5
100
AcDbSymbolTableRecord
100
AcDbLinetypeTableRecord
70
0
2
Continuous
3
Solid line
72
65
73
0
40
0.0
0
LTYPE
5
2AF
330
5
100
AcDbSymbolTableRecord
100
AcDbLinetypeTableRecord
70
0
2
DASHED
3
Dashed __ __ __ __ __ __ __ __ __ __ __ __ __ _
72
65
73
2
40
19.05
49
12.7
74
0
49
-6.35
74
0
0
LTYPE
5
452
330
5
100
AcDbSymbolTableRecord
100
AcDbLinetypeTableRecord
70
0
2
DOT
3
Dot . . . . . . . . . . . . . . . . . . . . . .
72
65
73
2
40
6.35
49
0.0
74
0
49
-6.35
74
0
0
ENDTAB
0
TABLE
2
LAYER
5
2
330
0
100
AcDbSymbolTable
70
7
0
LAYER
5
10
330
2
100
AcDbSymbolTableRecord
100
AcDbLayerTableRecord
2
0
70
0
62
7
6
Continuous
290
1
370
-3
390
0
0
LAYER
5
22D
330
2
100
AcDbSymbolTableRecord
100
AcDbLayerTableRecord
2
Defpoints
70
0
62
7
6
Continuous
290
0
370
-3
390
0
0
LAYER
5
29D
330
2
100
AcDbSymbolTableRecord
100
AcDbLayerTableRecord
2
Layer1
70
0
62
40
6
Continuous
290
1
370
-3
390
0
1001
AcCmTransparency
1071
16777216
0
LAYER
5
2A0
330
2
100
AcDbSymbolTableRecord
100
AcDbLayerTableRecord
2
Layer2
70
0
62
53
420
9090378
6
Continuous
290
1
370
-3
390
0
1001
AcCmTransparency
1071
16777216
0
LAYER
5
2B0
330
2
100
AcDbSymbolTableRecord
100
AcDbLayerTableRecord
2
EntityProperties
70
0
62
161
6
Continuous
290
1
370
-3
390
0
1001
AcCmTransparency
1071
16777216
0
LAYER
5
3D2
330
2
100
AcDbSymbolTableRecord
100
AcDbLayerTableRecord
2
Groups
70
0
62
132
6
Continuous
290
1
370
-3
390
0
1001
AcCmTransparency
1071
16777216
0
LAYER
5
451
330
2
100
AcDbSymbolTableRecord
100
AcDbLayerTableRecord
2
ConstructionLines
70
0
62
252
6
DOT
290
1
370
35
390
0
1001
AcCmTransparency
1071
16777216
0
ENDTAB
0
TABLE
2
STYLE
5
3
330
0
100
AcDbSymbolTable
70
2
0
STYLE
5
11
330
3
100
AcDbSymbolTableRecord
100
AcDbTextStyleTableRecord
2
Standard
3
simplex.shx
70
0
71
0
40
0.0
41
1.0
42
0.0
50
0.0
0
STYLE
5
38E
330
3
100
AcDbSymbolTableRecord
100
AcDbTextStyleTableRecord
2
MyTextStyle
3
arial.ttf
70
0
71
0
40
0.0
41
1.0
42
0.0
50
0.0
0
ENDTAB
0
TABLE
2
DIMSTYLE
5
A
330
0
100
AcDbSymbolTable
70
3
100
AcDbDimStyleTable
0
DIMSTYLE
105
1B0
330
A
100
AcDbSymbolTableRecord
100
AcDbDimStyleTableRecord
2
Standard
70
0
3
<>
41
0.18
42
0.0625
44
0.18
73
0
74
0
77
1
140
0.18
141
0.09
147
0.09
179
0
271
2
275
0
278
46
280
0
340
11
0
DIMSTYLE
105
137
330
A
100
AcDbSymbolTableRecord
100
AcDbDimStyleTableRecord
2
Annotative
70
0
3
<>
41
2.5
42
0.625
44
1.25
73
0
74
0
77
1
140
2.5
141
2.5
147
0.625
179
0
271
2
275
0
278
44
280
0
340
11
0
DIMSTYLE
105
27
330
A
100
AcDbSymbolTableRecord
100
AcDbDimStyleTableRecord
2
ISO-25
70
0
3
<>
41
2.5
42
0.625
44
1.25
73
0
74
0
77
1
140
2.5
141
2.5
147
0.625
179
0
271
2
275
0
278
44
280
0
340
11
0
ENDTAB
0
TABLE
2
VIEW
5
6
330
0
100
AcDbSymbolTable
70
0
0
ENDTAB
0
TABLE
2
UCS
5
7
330
0
100
AcDbSymbolTable
70
1
0
UCS
5
467
330
7
100
AcDbSymbolTableRecord
100
AcDbUCSTableRecord
2
MyUCS
70
0
10
0.0
20
0.0
30
0.0
11
0.707106781186548
21
-0.707106781186547
31
-0.0000000000000005
12
0.408248290463863
22
0.408248290463863
32
0.816496580927726
79
0
146
0.0
0
ENDTAB
0
TABLE
2
BLOCK_RECORD
5
1
330
0
100
AcDbSymbolTable
70
4
0
BLOCK_RECORD
5
1F
330
1
100
AcDbSymbolTableRecord
100
AcDbBlockTableRecord
2
*Model_Space
340
22
0
BLOCK_RECORD
5
D2
330
1
100
AcDbSymbolTableRecord
100
AcDbBlockTableRecord
2
*Paper_Space
340
D3
0
BLOCK_RECORD
5
22E
330
1
100
AcDbSymbolTableRecord
100
AcDbBlockTableRecord
2
*D0
340
0
0
BLOCK_RECORD
5
24E
330
1
100
AcDbSymbolTableRecord
100
AcDbBlockTableRecord
2
MyBlock
340
0
70
4
280
1
281
0
1001
ACAD
1000
DesignCenter Data
1002
{
1070
1
1070
4
1002
}
0
ENDTAB
0
ENDSEC
0
SECTION
2
BLOCKS
0
BLOCK
5
20
330
1F
100
AcDbEntity
8
0
100
AcDbBlockBegin
2
*Model_Space
70
0
10
0.0
20
0.0
30
0.0
3
*Model_Space
0
ENDBLK
5
21
330
1F
100
AcDbEntity
8
0
100
AcDbBlockEnd
0
BLOCK
5
D4
330
D2
100
AcDbEntity
8
0
100
AcDbBlockBegin
2
*Paper_Space
70
0
10
0.0
20
0.0
30
0.0
3
*Paper_Space
0
ENDBLK
5
D5
330
D2
100
AcDbEntity
8
0
100
AcDbBlockEnd
0
BLOCK
5
22F
330
22E
100
AcDbEntity
8
0
100
AcDbBlockBegin
2
*D0
70
1
10
0.0
20
0.0
30
0.0
3
*D0
0
LINE
5
2A1
330
22E
100
AcDbEntity
8
Layer1
62
0
440
16777216
6
ByLayer
370
-2
48
1.0
60
0
100
AcDbLine
10
219.558058261758
20
20.4419417382416
30
0.0
11
209.116116523517
21
30.8838834764832
31
0.0
39
0.0
210
0.0
220
0.0
230
1.0
0
LINE
5
2A2
330
22E
100
AcDbEntity
8
Layer1
62
0
440
16777216
6
ByLayer
370
-2
48
1.0
60
0
100
AcDbLine
10
279.558058261759
20
80.4419417382416
30
0.0
11
269.116116523517
21
90.8838834764832
31
0.0
39
0.0
210
0.0
220
0.0
230
1.0
0
LINE
5
2A3
330
22E
100
AcDbEntity
8
Layer1
62
0
440
16777216
6
ByLayer
370
-2
48
1.0
60
0
100
AcDbLine
10
211.767766952966
20
31.7677669529664
30
0.0
11
268.232233047034
21
88.2322330470336
31
0.0
39
0.0
210
0.0
220
0.0
230
1.0
0
SOLID
5
2A4
330
22E
100
AcDbEntity
8
Layer1
62
0
440
16777216
6
ByLayer
370
-1
48
1.0
60
0
100
AcDbTrace
10
211.473139127472
20
32.0623947784608
30
0.0
11
212.062394778461
21
31.473139127472
31
0.0
12
210.0
22
30.0
32
0.0
13
210.0
23
30.0
33
0.0
39
0.0
210
0.0
220
0.0
230
1.0
0
SOLID
5
2A5
330
22E
100
AcDbEntity
8
Layer1
62
0
440
16777216
6
ByLayer
370
-1
48
1.0
60
0
100
AcDbTrace
10
267.937605221539
20
88.526860872528
30
0.0
11
268.526860872528
21
87.9376052215392
31
0.0
12
270.0
22
90.0
32
0.0
13
270.0
23
90.0
33
0.0
39
0.0
210
0.0
220
0.0
230
1.0
0
MTEXT
5
2A6
330
22E
100
AcDbEntity
8
Layer1
62
0
440
16777216
6
ByLayer
370
-1
48
1.0
60
0
100
AcDbMText
10
238.495709908714
20
61.5042900912862
30
0.0
210
0.0
220
0.0
230
1.0
1
84,85
40
2.5
41
0.0
44
1.0
50
45.0
71
5
72
5
7
Standard
0
POINT
5
2A7
330
22E
100
AcDbEntity
8
Defpoints
62
0
440
16777216
6
ByLayer
370
-1
48
1.0
60
0
100
AcDbPoint
10
220.0
20
20.0
30
0.0
39
0.0
210
0.0
220
0.0
230
1.0
50
360.0
0
POINT
5
2A8
330
22E
100
AcDbEntity
8
Defpoints
62
0
440
16777216
6
ByLayer
370
-1
48
1.0
60
0
100
AcDbPoint
10
280.0
20
80.0
30
0.0
39
0.0
210
0.0
220
0.0
230
1.0
50
360.0
0
POINT
5
2A9
330
22E
100
AcDbEntity
8
Defpoints
62
0
440
16777216
6
ByLayer
370
-1
48
1.0
60
0
100
AcDbPoint
10
270.0
20
90.0
30
0.0
39
0.0
210
0.0
220
0.0
230
1.0
50
360.0
0
ENDBLK
5
230
330
22E
100
AcDbEntity
8
0
100
AcDbBlockEnd
0
BLOCK
5
24F
330
24E
100
AcDbEntity
8
0
100
AcDbBlockBegin
2
MyBlock
70
2
10
0.0
20
0.0
30
0.0
3
MyBlock
0
ATTDEF
5
25F
330
24E
100
AcDbEntity
8
0
62
256
6
ByLayer
370
-1
48
1.0
60
0
100
AcDbText
10
0.0
20
0.0
30
0.0
40
5.0
1
1
72
0
50
0.0
41
1.0
7
Standard
11
0.0
21
0.0
31
0.0
210
0.0
220
0.0
230
1.0
100
AcDbAttributeDefinition
3
Enter number:
2
ATTINFO
70
0
74
0
0
LINE
5
258
330
24E
100
AcDbEntity
8
0
62
256
6
ByLayer
370
-1
48
1.0
60
0
100
AcDbLine
10
-40.0
20
-40.0
30
0.0
11
40.0
21
40.0
31
0.0
39
0.0
210
0.0
220
0.0
230
1.0
0
LINE
5
259
330
24E
100
AcDbEntity
8
0
62
256
6
ByLayer
370
-1
48
1.0
60
0
100
AcDbLine
10
-40.0
20
40.0
30
0.0
11
40.0
21
-40.0
31
0.0
39
0.0
210
0.0
220
0.0
230
1.0
0
CIRCLE
5
25A
330
24E
100
AcDbEntity
8
0
62
256
6
ByLayer
370
-1
48
1.0
60
0
100
AcDbCircle
10
0.0
20
0.0
30
0.0
40
30.0
39
0.0
210
0.0
220
0.0
230
1.0
0
ENDBLK
5
250
330
24E
100
AcDbEntity
8
0
100
AcDbBlockEnd
0
ENDSEC
0
SECTION
2
ENTITIES
0
VIEWPORT
5
4A4
330
D2
100
AcDbEntity
67
1
8
0
62
256
6
ByLayer
370
-1
48
1.0
60
0
100
AcDbViewport
10
128.5
20
97.5
30
0.0
40
458.559473684211
41
222.18
68
1
69
1
12
128.5
22
97.5
13
0.0
23
0.0
14
10.0
24
10.0
15
10.0
25
10.0
16
0.0
26
0.0
36
1.0
17
0.0
27
0.0
37
0.0
42
50.0
43
0.0
44
0.0
45
222.18
50
0.0
51
0.0
72
1000
90
819232
110
0.0
120
0.0
130
0.0
111
1.0
121
0.0
131
0.0
112
0.0
122
1.0
132
0.0
0
VIEWPORT
5
4A8
330
D2
100
AcDbEntity
67
1
8
0
62
256
6
ByLayer
370
-1
48
1.0
60
0
100
AcDbViewport
10
128.5
20
97.5
30
0.0
40
205.6
41
156.0
68
2
69
2
12
-0.0000016465823478
22
-80.9045257568359
13
0.0
23
0.0
14
10.0
24
10.0
15
10.0
25
10.0
16
-0.0000000000004547
26
0.0
36
2078.05793717309
17
450.000001646582
27
-44.0954742431641
37
25.0
42
50.0
43
0.0
44
0.0
45
688.431242289077
50
0.0
51
0.0
72
1000
90
820064
110
0.0
120
0.0
130
0.0
111
1.0
121
0.0
131
0.0
112
0.0
122
1.0
132
0.0
0
ARC
5
229
330
1F
100
AcDbEntity
67
0
8
Layer1
62
256
6
ByLayer
370
-1
48
1.0
60
0
100
AcDbCircle
39
0.0
10
50.0
20
0.0
30
0.0
40
50.0
210
0.0
220
0.0
230
1.0
100
AcDbArc
50
0.0
51
180.0
0
CIRCLE
5
22A
330
1F
100
AcDbEntity
67
0
8
Layer1
62
256
6
ByLayer
370
-1
48
1.0
60
0
100
AcDbCircle
10
150.0
20
50.0
30
0.0
40
50.0
39
0.0
210
0.0
220
0.0
230
1.0
0
DIMENSION
5
22C
330
1F
100
AcDbEntity
67
0
8
Layer1
62
256
6
ByLayer
370
-1
48
1.0
60
0
100
AcDbDimension
2
*D0
10
270.0
20
90.0
30
0.0
11
238.495709908714
21
61.5042900912862
31
0.0
70
33
71
5
72
1
41
1.0
210
0.0
220
0.0
230
1.0
3
ISO-25
100
AcDbAlignedDimension
13
220.0
23
20.0
33
0.0
14
280.0
24
80.0
34
0.0
0
ELLIPSE
5
23A
330
1F
100
AcDbEntity
67
0
8
Layer1
62
256
6
ByLayer
370
-1
48
1.0
60
0
100
AcDbEllipse
10
350.0
20
50.0
30
0.0
11
-50.0
21
0.00000000000000612
31
0.0
210
0.0
220
0.0
230
1.0
40
0.6
41
0.0
42
6.28318530717959
0
3DFACE
5
23B
330
1F
100
AcDbEntity
67
0
8
Layer1
62
256
6
ByLayer
370
-1
48
1.0
60
0
100
AcDbFace
10
420.0
20
20.0
30
0.0
11
490.0
21
30.0
31
0.0
12
460.0
22
90.0
32
0.0
13
420.0
23
60.0
33
0.0
70
0
0
LWPOLYLINE
5
23C
330
1F
100
AcDbEntity
67
0
8
Layer2
62
256
6
ByLayer
370
-1
48
1.0
60
0
100
AcDbPolyline
90
4
70
1
38
0.0
39
0.0
10
20.0
20
-80.0
40
0.0
41
0.0
42
0.0
10
90.0
20
-70.0
40
0.0
41
0.0
42
0.0
10
60.0
20
-10.0
40
0.0
41
0.0
42
0.0
10
20.0
20
-40.0
40
0.0
41
0.0
42
0.0
210
0.0
220
0.0
230
1.0
0
HATCH
5
240
330
1F
100
AcDbEntity
67
0
8
Layer1
62
256
6
ByLayer
370
-1
48
1.0
60
0
100
AcDbHatch
10
0.0
20
0.0
30
0.0
210
0.0
220
0.0
230
1.0
2
LINE
70
0
71
0
91
1
92
5
93
4
72
1
10
520.0
20
20.0
11
590.0
21
30.0
72
1
10
590.0
20
30.0
11
560.0
21
90.0
72
1
10
560.0
20
90.0
11
520.0
21
60.0
72
1
10
520.0
20
60.0
11
520.0
21
20.0
97
0
75
1
76
1
52
45.0
41
1.0
77
0
78
1
53
45.0
43
0.0
44
0.0
45
-2.24506403026729
46
2.24506403026729
79
0
47
0.0
98
1
10
0.0
20
0.0
1001
GradientColor1ACI
1070
5
1001
GradientColor2ACI
1070
2
1001
ACAD
1010
0.0
1020
0.0
1030
0.0
0
IMAGE
5
249
330
1F
100
AcDbEntity
67
0
8
Layer1
62
256
6
ByLayer
370
-1
48
1.0
60
0
100
AcDbRasterImage
10
610.0
20
10.0
30
0.0
11
0.307692307692308
21
0.0
31
0.0
12
0.0
22
0.307692307692308
32
0.0
13
260.0
23
260.0
340
247
70
7
280
0
281
50
282
50
283
0
360
248
71
1
91
2
14
-0.5
24
-0.5
14
259.5
24
259.5
0
LINE
5
24A
330
1F
100
AcDbEntity
67
0
8
Layer1
62
256
6
ByLayer
370
-1
48
1.0
60
0
100
AcDbLine
10
800.0
20
0.0
30
0.0
11
900.0
21
100.0
31
0.0
39
0.0
210
0.0
220
0.0
230
1.0
1001
NETDXF
1002
{
1011
1.19792924781
1021
0.0704664263417644
1031
0.0
1040
3.1416
1070
5
1000
sample xData entry
1002
}
0
INSERT
5
263
330
1F
100
AcDbEntity
67
0
8
Layer1
62
256
6
ByLayer
370
-1
48
1.0
60
0
100
AcDbBlockReference
2
MyBlock
10
750.0
20
50.0
30
0.0
41
1.0
42
1.0
43
1.0
50
0.0
210
0.0
220
0.0
230
1.0
66
1
0
ATTRIB
5
264
330
24E
100
AcDbEntity
8
0
62
256
6
ByLayer
370
-1
48
1.0
60
0
100
AcDbText
10
750.0
20
50.0
30
0.0
40
5.0
41
1.0
7
Standard
1
17
72
0
11
750.0
21
50.0
31
0.0
50
0.0
210
0.0
220
0.0
230
1.0
100
AcDbAttribute
2
ATTINFO
70
0
74
0
0
SEQEND
5
265
100
AcDbEntity
8
Layer1
0
MTEXT
5
273
330
1F
100
AcDbEntity
67
0
8
Layer2
62
256
6
ByLayer
370
-1
48
1.0
60
0
100
AcDbMText
10
210.0
20
-10.0
30
0.0
210
0.0
220
0.0
230
1.0
1
This is a sample multiline text. This is a sample multiline text.
40
7.5
41
80.0
44
1.0
50
0.0
71
1
72
5
7
Standard
1001
ACAD
1000
ACAD_MTEXT_COLUMN_INFO_BEGIN
1070
75
1070
2
1070
79
1070
0
1070
76
1070
1
1070
78
1070
0
1070
48
1040
80.0
1070
49
1040
12.5
1070
50
1070
1
1040
0.0
1000
ACAD_MTEXT_COLUMN_INFO_END
0
POINT
5
274
330
1F
100
AcDbEntity
67
0
8
Layer2
62
256
6
ByLayer
370
-1
48
1.0
60
0
100
AcDbPoint
10
350.0
20
-50.0
30
0.0
39
0.0
210
0.0
220
0.0
230
1.0
50
360.0
0
POLYLINE
5
275
330
1F
100
AcDbEntity
67
0
8
Layer2
62
256
6
ByLayer
370
-1
48
1.0
60
0
100
AcDbPolyFaceMesh
70
64
71
5
72
2
10
0.0
20
0.0
30
0.0
210
0.0
220
0.0
230
1.0
0
VERTEX
5
276
100
AcDbEntity
8
Layer2
62
256
100
AcDbVertex
100
AcDbPolyFaceMeshVertex
70
192
10
410.0
20
-90.0
30
0.0
0
VERTEX
5
277
100
AcDbEntity
8
Layer2
62
256
100
AcDbVertex
100
AcDbPolyFaceMeshVertex
70
192
10
490.0
20
-80.0
30
0.0
0
VERTEX
5
278
100
AcDbEntity
8
Layer2
62
256
100
AcDbVertex
100
AcDbPolyFaceMeshVertex
70
192
10
470.0
20
-50.0
30
0.0
0
VERTEX
5
279
100
AcDbEntity
8
Layer2
62
256
100
AcDbVertex
100
AcDbPolyFaceMeshVertex
70
192
10
490.0
20
-10.0
30
0.0
0
VERTEX
5
27A
100
AcDbEntity
8
Layer2
62
256
100
AcDbVertex
100
AcDbPolyFaceMeshVertex
70
192
10
420.0
20
-30.0
30
0.0
0
VERTEX
5
27B
100
AcDbEntity
8
Layer2
62
256
100
AcDbFaceRecord
70
128
10
0.0
20
0.0
30
0.0
71
1
72
2
73
3
74
-4
0
VERTEX
5
27C
100
AcDbEntity
8
Layer2
62
256
100
AcDbFaceRecord
70
128
10
0.0
20
0.0
30
0.0
71
-1
72
4
73
5
0
SEQEND
5
27D
100
AcDbEntity
8
Layer2
0
POLYLINE
5
27E
330
1F
100
AcDbEntity
67
0
8
Layer2
62
256
6
ByLayer
370
-1
48
1.0
60
0
100
AcDb3dPolyline
10
0.0
20
0.0
30
0.0
70
8
75
0
210
0.0
220
0.0
230
1.0
0
VERTEX
5
280
100
AcDbEntity
8
Layer2
62
256
100
AcDbVertex
100
AcDb3dPolylineVertex
10
510.0
20
-90.0
30
0.0
70
32
0
VERTEX
5
281
100
AcDbEntity
8
Layer2
62
256
100
AcDbVertex
100
AcDb3dPolylineVertex
10
590.0
20
-80.0
30
50.0
70
32
0
VERTEX
5
282
100
AcDbEntity
8
Layer2
62
256
100
AcDbVertex
100
AcDb3dPolylineVertex
10
550.0
20
-50.0
30
0.0
70
32
0
VERTEX
5
283
100
AcDbEntity
8
Layer2
62
256
100
AcDbVertex
100
AcDb3dPolylineVertex
10
590.0
20
-10.0
30
50.0
70
32
0
VERTEX
5
284
100
AcDbEntity
8
Layer2
62
256
100
AcDbVertex
100
AcDb3dPolylineVertex
10
520.0
20
-20.0
30
0.0
70
32
0
SEQEND
5
27F
100
AcDbEntity
8
Layer2
0
SOLID
5
28D
330
1F
100
AcDbEntity
67
0
8
Layer2
62
256
6
ByLayer
370
-1
48
1.0
60
0
100
AcDbTrace
10
610.0
20
-90.0
30
0.0
11
690.0
21
-80.0
31
0.0
12
620.0
22
-30.0
32
0.0
13
680.0
23
-10.0
33
0.0
39
0.0
210
0.0
220
0.0
230
1.0
0
SPLINE
5
28E
330
1F
100
AcDbEntity
67
0
8
Layer2
62
256
6
ByLayer
370
-1
48
1.0
60
0
100
AcDbSpline
70
4
71
3
40
0.0
40
0.0
40
0.0
40
0.0
40
1.0
40
1.0
40
1.0
40
1.0
41
1.0
10
710.0
20
-100.0
30
0.0
41
1.0
10
730.0
20
-20.0
30
0.0
41
1.0
10
770.0
20
-90.0
30
0.0
41
1.0
10
790.0
20
-10.0
30
0.0
0
TEXT
5
28F
330
1F
100
AcDbEntity
67
0
8
Layer2
62
256
6
ByLayer
370
-1
48
1.0
60
0
100
AcDbText
1
This is a single line text
10
850.0
20
-50.0
30
0.0
40
5.0
41
1.0
50
0.0
51
0.0
7
MyTextStyle
11
850.0
21
-50.0
31
0.0
210
0.0
220
0.0
230
1.0
72
1
100
AcDbText
73
2
0
LINE
5
2AA
330
1F
100
AcDbEntity
67
0
8
EntityProperties
62
256
6
DASHED
370
-1
48
1.25
60
0
100
AcDbLine
10
0.0
20
-200.0
30
0.0
11
100.0
21
-100.0
31
0.0
39
0.0
210
0.0
220
0.0
230
1.0
0
LINE
5
2AB
330
1F
100
AcDbEntity
67
0
8
EntityProperties
62
1
6
ByLayer
370
-1
48
1.0
60
0
100
AcDbLine
10
100.0
20
-200.0
30
0.0
11
200.0
21
-100.0
31
0.0
39
0.0
210
0.0
220
0.0
230
1.0
0
LINE
5
2AC
330
1F
100
AcDbEntity
67
0
8
EntityProperties
62
256
6
ByLayer
370
50
48
1.0
60
0
100
AcDbLine
10
300.0
20
-200.0
30
0.0
11
400.0
21
-100.0
31
0.0
39
0.0
210
0.0
220
0.0
230
1.0
0
LINE
5
2B1
330
1F
100
AcDbEntity
67
0
8
EntityProperties
62
195
420
10749689
6
ByLayer
370
-1
48
1.0
60
0
100
AcDbLine
10
200.0
20
-200.0
30
0.0
11
300.0
21
-100.0
31
0.0
39
0.0
210
0.0
220
0.0
230
1.0
0
MLINE
5
3A8
330
1F
100
AcDbEntity
67
0
8
Layer2
62
256
6
ByLayer
370
-1
48
1.0
60
0
100
AcDbMline
2
STANDARD
340
18
40
20.0
70
0
71
1
72
2
73
2
10
110.0
20
-90.0
30
0.0
210
0.0
220
0.0
230
1.0
11
110.0
21
-90.0
31
0.0
12
0.0
22
1.0
32
0.0
13
-1.0
23
0.00000000000000012
33
0.0
74
2
41
0.0
41
0.0
75
0
74
4
41
-20.0
41
0.0
41
32.5
41
47.5
75
0
11
110.0
21
-10.0
31
0.0
12
0.0
22
1.0
32
0.0
13
-1.0
23
0.00000000000000012
33
0.0
74
2
41
0.0
41
0.0
75
0
74
2
41
-20.0
41
0.0
75
0
0
MLINE
5
3A9
330
1F
100
AcDbEntity
67
0
8
Layer2
62
256
6
ByLayer
370
-1
48
1.0
60
0
100
AcDbMline
2
STANDARD
340
18
40
15.0
70
1
71
5
72
2
73
2
10
110.0
20
-50.0
30
0.0
210
0.0
220
0.0
230
1.0
11
110.0
21
-50.0
31
0.0
12
1.0
22
0.0
32
0.0
13
0.00000000000000022
23
1.0
33
0.0
74
2
41
7.5
41
20.0
75
0
74
2
41
-7.5
41
20.0
75
0
11
190.0
21
-50.0
31
0.0
12
1.0
22
0.0
32
0.0
13
0.00000000000000022
23
1.0
33
0.0
74
2
41
7.5
41
0.0
75
0
74
2
41
-7.5
41
0.0
75
0
0
LINE
5
3CD
330
1F
100
AcDbEntity
67
0
8
Groups
62
256
6
ByLayer
370
-1
48
1.0
60
0
100
AcDbLine
10
400.0
20
-200.0
30
0.0
11
500.0
21
-100.0
31
0.0
39
0.0
210
0.0
220
0.0
230
1.0
0
LINE
5
3CE
330
1F
100
AcDbEntity
67
0
8
Groups
62
256
6
ByLayer
370
-1
48
1.0
60
0
100
AcDbLine
10
500.0
20
-200.0
30
0.0
11
600.0
21
-100.0
31
0.0
39
0.0
210
0.0
220
0.0
230
1.0
0
LINE
5
3CF
330
1F
100
AcDbEntity
67
0
8
Groups
62
256
6
ByLayer
370
-1
48
1.0
60
0
100
AcDbLine
10
600.0
20
-200.0
30
0.0
11
700.0
21
-100.0
31
0.0
39
0.0
210
0.0
220
0.0
230
1.0
0
LINE
5
3D0
330
1F
100
AcDbEntity
67
0
8
Groups
62
2
6
ByLayer
370
-1
48
1.0
60
0
100
AcDbLine
10
700.0
20
-200.0
30
0.0
11
800.0
21
-100.0
31
0.0
39
0.0
210
0.0
220
0.0
230
1.0
0
LINE
5
3D1
330
1F
100
AcDbEntity
67
0
8
Groups
62
2
6
ByLayer
370
-1
48
1.0
60
0
100
AcDbLine
10
800.0
20
-200.0
30
0.0
11
900.0
21
-100.0
31
0.0
39
0.0
210
0.0
220
0.0
230
1.0
0
HATCH
5
3E0
330
1F
100
AcDbEntity
67
0
8
0
62
256
6
ByLayer
370
-1
48
1.0
60
0
100
AcDbHatch
10
0.0
20
0.0
30
0.0
210
0.0
220
0.0
230
1.0
2
SOLID
70
1
71
0
91
1
92
5
93
4
72
1
10
0.0
20
-350.0
11
100.0
21
-350.0
72
1
10
100.0
20
-350.0
11
100.0
21
-250.0
72
1
10
100.0
20
-250.0
11
0.0
21
-250.0
72
1
10
0.0
20
-250.0
11
0.0
21
-350.0
97
0
75
0
76
1
47
0.0
98
1
10
0.0
20
0.0
450
1
451
0
460
0.0
461
1.0
452
0
462
1.0
453
2
463
0.0
63
44
421
5005209
463
1.0
63
254
421
16044355
470
INVSPHERICAL
1001
GradientColor1ACI
1070
44
1001
ACAD
1010
0.0
1020
0.0
1030
0.0
1001
GradientColor2ACI
1070
254
0
HATCH
5
3E1
330
1F
100
AcDbEntity
67
0
8
0
62
256
6
ByLayer
370
-1
48
1.0
60
0
100
AcDbHatch
10
0.0
20
0.0
30
0.0
210
0.0
220
0.0
230
1.0
2
SOLID
70
1
71
0
91
1
92
5
93
4
72
1
10
150.0
20
-350.0
11
250.0
21
-350.0
72
1
10
250.0
20
-350.0
11
250.0
21
-250.0
72
1
10
250.0
20
-250.0
11
150.0
21
-250.0
72
1
10
150.0
20
-250.0
11
150.0
21
-350.0
97
0
75
0
76
1
47
0.0
98
1
10
0.0
20
0.0
450
1
451
0
460
0.785398163397448
461
0.0
452
1
462
0.769999980926514
453
2
463
0.0
63
44
421
5005209
463
1.0
63
21
421
11582168
470
HEMISPHERICAL
1001
GradientColor1ACI
1070
44
1001
ACAD
1010
0.0
1020
0.0
1030
0.0
1001
GradientColor2ACI
1070
21
0
RAY
5
44F
330
1F
100
AcDbEntity
67
0
8
ConstructionLines
62
256
6
ByLayer
370
-1
48
1.0
60
0
100
AcDbRay
10
0.0
20
100.0
30
0.0
11
0.707106781186548
21
0.707106781186548
31
0.0
0
XLINE
5
450
330
1F
100
AcDbEntity
67
0
8
ConstructionLines
62
256
6
ByLayer
370
-1
48
1.0
60
0
100
AcDbXline
10
150.0
20
150.0
30
0.0
11
1.0
21
0.0
31
0.0
0
MESH
5
504
330
1F
100
AcDbEntity
67
0
8
Layer1
62
256
6
ByLayer
370
-1
48
1.0
60
0
100
AcDbSubDMesh
71
2
72
0
91
2
92
62
10
975.0
20
50.0
30
-43.3012701892219
10
971.650635094611
20
62.5
30
-43.3012701892219
10
962.5
20
71.6506350946109
30
-43.3012701892219
10
950.0
20
75.0
30
-43.3012701892219
10
937.5
20
71.6506350946109
30
-43.3012701892219
10
928.349364905389
20
62.5
30
-43.3012701892219
10
925.0
20
50.0
30
-43.3012701892219
10
928.349364905389
20
37.5
30
-43.3012701892219
10
937.5
20
28.349364905389
30
-43.3012701892219
10
950.0
20
25.0
30
-43.3012701892219
10
962.5
20
28.349364905389
30
-43.3012701892219
10
971.650635094611
20
37.5
30
-43.3012701892219
10
993.301270189222
20
50.0
30
-25.0
10
987.5
20
71.6506350946109
30
-25.0
10
971.650635094611
20
87.5
30
-25.0
10
950.0
20
93.3012701892219
30
-25.0
10
928.349364905389
20
87.5
30
-25.0
10
912.5
20
71.6506350946109
30
-25.0
10
906.698729810778
20
50.0
30
-25.0
10
912.5
20
28.349364905389
30
-25.0
10
928.349364905389
20
12.5
30
-25.0
10
950.0
20
6.69872981077807
30
-25.0
10
971.650635094611
20
12.5
30
-25.0
10
987.5
20
28.349364905389
30
-25.0
10
1000.0
20
50.0
30
0.0
10
993.301270189222
20
75.0
30
0.0
10
975.0
20
93.3012701892219
30
0.0
10
950.0
20
100.0
30
0.0
10
925.0
20
93.3012701892219
30
0.0
10
906.698729810778
20
75.0
30
0.0
10
900.0
20
50.0
30
0.0
10
906.698729810778
20
25.0
30
0.0
10
925.0
20
6.69872981077808
30
0.0
10
950.0
20
0.0
30
0.0
10
975.0
20
6.69872981077807
30
0.0
10
993.301270189222
20
25.0
30
0.0
10
993.301270189222
20
50.0
30
25.0
10
987.5
20
71.6506350946109
30
25.0
10
971.650635094611
20
87.5
30
25.0
10
950.0
20
93.3012701892219
30
25.0
10
928.349364905389
20
87.5
30
25.0
10
912.5
20
71.6506350946109
30
25.0
10
906.698729810778
20
50.0
30
25.0
10
912.5
20
28.349364905389
30
25.0
10
928.349364905389
20
12.5
30
25.0
10
950.0
20
6.69872981077806
30
25.0
10
971.650635094611
20
12.5
30
25.0
10
987.5
20
28.349364905389
30
25.0
10
975.0
20
50.0
30
43.3012701892219
10
971.650635094611
20
62.5
30
43.3012701892219
10
962.5
20
71.6506350946109
30
43.3012701892219
10
950.0
20
75.0
30
43.3012701892219
10
937.5
20
71.6506350946109
30
43.3012701892219
10
928.349364905389
20
62.5
30
43.3012701892219
10
925.0
20
50.0
30
43.3012701892219
10
928.349364905389
20
37.5
30
43.3012701892219
10
937.5
20
28.349364905389
30
43.3012701892219
10
950.0
20
25.0
30
43.3012701892219
10
962.5
20
28.349364905389
30
43.3012701892219
10
971.650635094611
20
37.5
30
43.3012701892219
10
950.0
20
50.0
30
-50.0
10
950.0
20
50.0
30
50.0
93
336
90
3
90
60
90
1
90
0
90
3
90
60
90
2
90
1
90
3
90
60
90
3
90
2
90
3
90
60
90
4
90
3
90
3
90
60
90
5
90
4
90
3
90
60
90
6
90
5
90
3
90
60
90
7
90
6
90
3
90
60
90
8
90
7
90
3
90
60
90
9
90
8
90
3
90
60
90
10
90
9
90
3
90
60
90
11
90
10
90
3
90
60
90
0
90
11
90
4
90
13
90
12
90
0
90
1
90
4
90
14
90
13
90
1
90
2
90
4
90
15
90
14
90
2
90
3
90
4
90
16
90
15
90
3
90
4
90
4
90
17
90
16
90
4
90
5
90
4
90
18
90
17
90
5
90
6
90
4
90
19
90
18
90
6
90
7
90
4
90
20
90
19
90
7
90
8
90
4
90
21
90
20
90
8
90
9
90
4
90
22
90
21
90
9
90
10
90
4
90
23
90
22
90
10
90
11
90
4
90
12
90
23
90
11
90
0
90
4
90
25
90
24
90
12
90
13
90
4
90
26
90
25
90
13
90
14
90
4
90
27
90
26
90
14
90
15
90
4
90
28
90
27
90
15
90
16
90
4
90
29
90
28
90
16
90
17
90
4
90
30
90
29
90
17
90
18
90
4
90
31
90
30
90
18
90
19
90
4
90
32
90
31
90
19
90
20
90
4
90
33
90
32
90
20
90
21
90
4
90
34
90
33
90
21
90
22
90
4
90
35
90
34
90
22
90
23
90
4
90
24
90
35
90
23
90
12
90
4
90
37
90
36
90
24
90
25
90
4
90
38
90
37
90
25
90
26
90
4
90
39
90
38
90
26
90
27
90
4
90
40
90
39
90
27
90
28
90
4
90
41
90
40
90
28
90
29
90
4
90
42
90
41
90
29
90
30
90
4
90
43
90
42
90
30
90
31
90
4
90
44
90
43
90
31
90
32
90
4
90
45
90
44
90
32
90
33
90
4
90
46
90
45
90
33
90
34
90
4
90
47
90
46
90
34
90
35
90
4
90
36
90
47
90
35
90
24
90
4
90
49
90
48
90
36
90
37
90
4
90
50
90
49
90
37
90
38
90
4
90
51
90
50
90
38
90
39
90
4
90
52
90
51
90
39
90
40
90
4
90
53
90
52
90
40
90
41
90
4
90
54
90
53
90
41
90
42
90
4
90
55
90
54
90
42
90
43
90
4
90
56
90
55
90
43
90
44
90
4
90
57
90
56
90
44
90
45
90
4
90
58
90
57
90
45
90
46
90
4
90
59
90
58
90
46
90
47
90
4
90
48
90
59
90
47
90
36
90
3
90
48
90
49
90
61
90
3
90
49
90
50
90
61
90
3
90
50
90
51
90
61
90
3
90
51
90
52
90
61
90
3
90
52
90
53
90
61
90
3
90
53
90
54
90
61
90
3
90
54
90
55
90
61
90
3
90
55
90
56
90
61
90
3
90
56
90
57
90
61
90
3
90
57
90
58
90
61
90
3
90
58
90
59
90
61
90
3
90
59
90
48
90
61
94
132
90
1
90
60
90
0
90
1
90
0
90
60
90
2
90
60
90
1
90
2
90
3
90
60
90
2
90
3
90
4
90
60
90
3
90
4
90
5
90
60
90
4
90
5
90
6
90
60
90
5
90
6
90
7
90
60
90
6
90
7
90
8
90
60
90
7
90
8
90
9
90
60
90
8
90
9
90
10
90
60
90
9
90
10
90
11
90
60
90
10
90
11
90
0
90
11
90
12
90
13
90
0
90
12
90
1
90
13
90
13
90
14
90
2
90
14
90
14
90
15
90
3
90
15
90
15
90
16
90
4
90
16
90
16
90
17
90
5
90
17
90
17
90
18
90
6
90
18
90
18
90
19
90
7
90
19
90
19
90
20
90
8
90
20
90
20
90
21
90
9
90
21
90
21
90
22
90
10
90
22
90
22
90
23
90
11
90
23
90
12
90
23
90
24
90
25
90
12
90
24
90
13
90
25
90
25
90
26
90
14
90
26
90
26
90
27
90
15
90
27
90
27
90
28
90
16
90
28
90
28
90
29
90
17
90
29
90
29
90
30
90
18
90
30
90
30
90
31
90
19
90
31
90
31
90
32
90
20
90
32
90
32
90
33
90
21
90
33
90
33
90
34
90
22
90
34
90
34
90
35
90
23
90
35
90
24
90
35
90
36
90
37
90
24
90
36
90
25
90
37
90
37
90
38
90
26
90
38
90
38
90
39
90
27
90
39
90
39
90
40
90
28
90
40
90
40
90
41
90
29
90
41
90
41
90
42
90
30
90
42
90
42
90
43
90
31
90
43
90
43
90
44
90
32
90
44
90
44
90
45
90
33
90
45
90
45
90
46
90
34
90
46
90
46
90
47
90
35
90
47
90
36
90
47
90
48
90
49
90
36
90
48
90
37
90
49
90
49
90
50
90
38
90
50
90
50
90
51
90
39
90
51
90
51
90
52
90
40
90
52
90
52
90
53
90
41
90
53
90
53
90
54
90
42
90
54
90
54
90
55
90
43
90
55
90
55
90
56
90
44
90
56
90
56
90
57
90
45
90
57
90
57
90
58
90
46
90
58
90
58
90
59
90
47
90
59
90
48
90
59
90
49
90
61
90
48
90
61
90
50
90
61
90
51
90
61
90
52
90
61
90
53
90
61
90
54
90
61
90
55
90
61
90
56
90
61
90
57
90
61
90
58
90
61
90
59
90
61
95
132
140
0.0
140
0.0
140
0.0
140
0.0
140
0.0
140
0.0
140
0.0
140
0.0
140
0.0
140
0.0
140
0.0
140
0.0
140
0.0
140
0.0
140
0.0
140
0.0
140
0.0
140
0.0
140
0.0
140
0.0
140
0.0
140
0.0
140
0.0
140
0.0
140
0.0
140
0.0
140
0.0
140
0.0
140
0.0
140
0.0
140
0.0
140
0.0
140
0.0
140
0.0
140
0.0
140
0.0
140
0.0
140
0.0
140
0.0
140
0.0
140
0.0
140
0.0
140
0.0
140
0.0
140
0.0
140
0.0
140
0.0
140
0.0
140
0.0
140
0.0
140
0.0
140
0.0
140
0.0
140
0.0
140
0.0
140
0.0
140
0.0
140
0.0
140
0.0
140
0.0
140
0.0
140
0.0
140
0.0
140
0.0
140
0.0
140
0.0
140
0.0
140
0.0
140
0.0
140
0.0
140
0.0
140
0.0
140
0.0
140
0.0
140
0.0
140
0.0
140
0.0
140
0.0
140
0.0
140
0.0
140
0.0
140
0.0
140
0.0
140
0.0
140
0.0
140
0.0
140
0.0
140
0.0
140
0.0
140
0.0
140
0.0
140
0.0
140
0.0
140
0.0
140
0.0
140
0.0
140
0.0
140
0.0
140
0.0
140
0.0
140
0.0
140
0.0
140
0.0
140
0.0
140
0.0
140
0.0
140
0.0
140
0.0
140
0.0
140
0.0
140
0.0
140
0.0
140
0.0
140
0.0
140
0.0
140
0.0
140
0.0
140
0.0
140
0.0
140
0.0
140
0.0
140
0.0
140
0.0
140
0.0
140
0.0
140
0.0
140
0.0
140
0.0
140
0.0
140
0.0
140
0.0
140
0.0
90
0
0
ENDSEC
0
SECTION
2
OBJECTS
0
DICTIONARY
5
5D1
330
0
100
AcDbDictionary
280
0
281
1
3
ACAD_GROUP
350
5D2
3
ACAD_LAYOUT
350
5D3
3
ACAD_MLINESTYLE
350
5D4
3
ACAD_IMAGE_DICT
350
5D5
3
ACAD_IMAGE_VARS
350
246
0
DICTIONARY
5
5D2
330
5D1
100
AcDbDictionary
280
0
281
1
3
*A1
350
3D4
3
MYNAMEDGROUP
350
3D3
0
DICTIONARY
5
5D3
330
5D1
100
AcDbDictionary
280
0
281
1
3
Layout1
350
D3
3
Model
350
22
0
DICTIONARY
5
5D4
330
5D1
100
AcDbDictionary
280
0
281
1
3
STANDARD
350
18
0
DICTIONARY
5
5D5
330
5D1
100
AcDbDictionary
280
0
281
1
3
image
350
247
0
GROUP
5
3D4
330
5D2
100
AcDbGroup
300

70
1
71
1
340
3D1
340
3D0
0
GROUP
5
3D3
330
5D2
100
AcDbGroup
300

70
0
71
1
340
3CF
340
3CE
340
3CD
0
LAYOUT
5
D3
330
5D3
100
AcDbPlotSettings
1

2
none_device
4
ISO_A4_(210.00_x_297.00_MM)
6

40
7.5
41
20.0
42
7.5
43
20.0
44
210.0
45
297.0
46
0.0
47
0.0
48
0.0
49
0.0
140
0.0
141
0.0
142
1.0
143
1.0
70
688
72
1
73
1
74
5
7

75
16
147
1.0
148
0.0
149
0.0
100
AcDbLayout
1
Layout1
70
1
71
1
10
-7.5
20
-7.5
11
277.0
21
202.5
12
0.0
22
0.0
32
0.0
14
25.7
24
19.5
34
0.0
15
231.3
25
175.5
35
0.0
146
0.0
13
0.0
23
0.0
33
0.0
16
1.0
26
0.0
36
0.0
17
0.0
27
1.0
37
0.0
76
0
330
D2
0
LAYOUT
5
22
330
5D3
100
AcDbPlotSettings
1

2
none_device
4
ISO_A4_(210.00_x_297.00_MM)
6

40
7.5
41
20.0
42
7.5
43
20.0
44
210.0
45
297.0
46
0.0
47
0.0
48
0.0
49
0.0
140
0.0
141
0.0
142
1.0
143
8.70408475473981
70
11952
72
1
73
0
74
5
7

75
16
147
0.11488858716081
148
0.0
149
0.0
100
AcDbLayout
1
Model
70
1
71
0
10
0.0
20
-7.5
11
12.0
21
9.0
12
0.0
22
0.0
32
0.0
14
0.0
24
0.0
34
0.0
15
0.0
25
0.0
35
0.0
146
0.0
13
0.0
23
0.0
33
0.0
16
1.0
26
0.0
36
0.0
17
0.0
27
1.0
37
0.0
76
0
330
1F
0
MLINESTYLE
5
18
330
5D4
100
AcDbMlineStyle
2
STANDARD
70
0
3

62
256
51
90.0
52
90.0
71
2
49
-0.5
62
256
6
ByLayer
49
0.5
62
256
6
ByLayer
0
RASTERVARIABLES
5
246
330
5D5
100
AcDbRasterVariables
90
0
70
1
71
1
72
1
0
IMAGEDEF_REACTOR
5
248
330
249
100
AcDbRasterImageDefReactor
90
2
330
249
0
IMAGEDEF
5
247
102
{ACAD_REACTORS
330
5D5
330
248
102
}
330
5D5
100
AcDbRasterImageDef
1
.\image.jpg
10
260.0
20
260.0
11
0.001
21
0.001
280
1
281
0
0
ENDSEC
0
EOF
